
<svg xmlns="http://www.w3.org/2000/svg" viewBox="0 0 100 100" width="100" height="100">
  <style>
    :root {
      color-scheme: light dark;
    }
    circle, path, line, rect {
      stroke-width: inherit;
    }
    .outer-ring {
      stroke: #a855f7;
      stroke-width: 6;
      fill: none;
    }
    .center-circle {
      fill: #facc15;
    }
    .spoke {
      stroke: #6b21a8;
      stroke-width: 5;
    }
    .cabin-body {
      fill: #c4b5fd;
    }
    .cabin-top {
      fill: #d1d5db;
    }
    .stand {
      stroke: #e0e7ff;
      stroke-width: 6;
      stroke-linecap: round;
    }
    @media (prefers-color-scheme: dark) {
      .outer-ring { stroke: #a855f7; }
      .center-circle { fill: #facc15; }
      .spoke { stroke: #6b21a8; }
      .cabin-body { fill: #c4b5fd; }
      .cabin-top { fill: #d1d5db; }
      .stand { stroke: #e0e7ff; }
    }
  </style>
  
  <!-- Main Structure -->
  <circle cx="50" cy="50" r="38" class="outer-ring" />
  <circle cx="50" cy="50" r="15" class="center-circle" />

  <!-- Spokes -->
  <line x1="50" y1="50" x2="50" y2="12" class="spoke"/>
  <line x1="50" y1="50" x2="50" y2="88" class="spoke"/>
  <line x1="50" y1="50" x2="12" y2="50" class="spoke"/>
  <line x1="50" y1="50" x2="88" y2="50" class="spoke"/>
  <line x1="50" y1="50" x2="26.2" y2="26.2" class="spoke"/>
  <line x1="50" y1="50" x2="73.8" y2="73.8" class="spoke"/>
  <line x1="50" y1="50" x2="26.2" y2="73.8" class="spoke"/>
  <line x1="50" y1="50" x2="73.8" y2="26.2" class="spoke"/>

  <!-- Cabins -->
  <rect x="45" y="5" width="10" height="12" rx="3" class="cabin-body"/>
  <rect x="45" y="5" width="10" height="5" rx="2" class="cabin-top"/>
  
  <rect x="45" y="83" width="10" height="12" rx="3" class="cabin-body" transform="rotate(180 50 89)"/>
  <rect x="45" y="83" width="10" height="5" rx="2" class="cabin-top" transform="rotate(180 50 89)"/>
  
  <rect x="5" y="45" width="12" height="10" rx="3" class="cabin-body" transform="rotate(-90 11 50)"/>
  <rect x="5" y="45" width="5" height="10" rx="2" class="cabin-top" transform="rotate(-90 11 50)"/>
  
  <rect x="83" y="45" width="12" height="10" rx="3" class="cabin-body" transform="rotate(90 89 50)"/>
  <rect x="83" y="45" width="5" height="10" rx="2" class="cabin-top" transform="rotate(90 89 50)"/>
  
  <rect x="20.2" y="20.2" width="11" height="11" rx="3" class="cabin-body" transform="rotate(-45 26.2 26.2)"/>
  <rect x="20.2" y="20.2" width="8" height="5" rx="2" class="cabin-top" transform="rotate(-45 26.2 26.2) translate(0, -2)"/>
  
  <rect x="68.8" y="68.8" width="11" height="11" rx="3" class="cabin-body" transform="rotate(135 73.8 73.8)"/>
  <rect x="68.8" y="68.8" width="8" height="5" rx="2" class="cabin-top" transform="rotate(135 73.8 73.8) translate(0, -2)"/>
  
  <rect x="20.2" y="68.8" width="11" height="11" rx="3" class="cabin-body" transform="rotate(-135 26.2 73.8)"/>
  <rect x="20.2" y="68.8" width="8" height="5" rx="2" class="cabin-top" transform="rotate(-135 26.2 73.8) translate(0, -2)"/>
  
  <rect x="68.8" y="20.2" width="11" height="11" rx="3" class="cabin-body" transform="rotate(45 73.8 26.2)"/>
  <rect x="68.8" y="20.2" width="8" height="5" rx="2" class="cabin-top" transform="rotate(45 73.8 26.2) translate(0, -2)"/>

  <!-- Stand -->
  <line x1="35" y1="88" x2="50" y2="65" class="stand"/>
  <line x1="65" y1="88" x2="50" y2="65" class="stand"/>
  <line x1="30" y1="88" x2="70" y2="88" class="stand"/>
</svg>
